<?xml version="1.0" encoding="UTF-8"?>
<svg width="78px" height="78px" viewBox="0 0 78 78" version="1.1" xmlns="http://www.w3.org/2000/svg" xmlns:xlink="http://www.w3.org/1999/xlink">
    <title>78</title>
    <g id="Page-1" stroke="none" stroke-width="1" fill="none" fill-rule="evenodd">
        <g id="78">
            <circle id="Oval-Copy" fill-opacity="0.85" fill="#000000" fill-rule="nonzero" cx="39" cy="39" r="39"></circle>
            <path d="M43.41,63.5 C42.0180825,63.4987746 40.6836215,62.9448474 39.7,61.96 L16.04,38.3175 C15.0551526,37.3338785 14.5012254,35.9994175 14.5,34.6075 L14.5,19.75 C14.5,16.8505051 16.8505051,14.5 19.75,14.5 L34.6075,14.5 C35.9994175,14.5012254 37.3338785,15.0551526 38.3175,16.04 L61.96,39.6825 C62.9485112,40.6675848 63.50414,42.0057047 63.50414,43.40125 C63.50414,44.7967953 62.9485112,46.1349152 61.96,47.12 L47.12,61.96 C46.1363785,62.9448474 44.8019175,63.4987746 43.41,63.5 Z M19.75,18 C18.7835017,18 18,18.7835017 18,19.75 L18,34.6075 C18.0019415,35.0751803 18.1910026,35.522625 18.525,35.85 L42.1675,59.4925 C42.8500655,60.1710163 43.9524345,60.1710163 44.635,59.4925 L59.4925,44.635 C60.1710163,43.9524345 60.1710163,42.8500655 59.4925,42.1675 L35.85,18.525 C35.522625,18.1910026 35.0751803,18.0019415 34.6075,18 L19.75,18 Z M28.5,35.5 C24.6340068,35.5 21.5,32.3659932 21.5,28.5 C21.5,24.6340068 24.6340068,21.5 28.5,21.5 C32.3659932,21.5 35.5,24.6340068 35.5,28.5 C35.5,30.3565154 34.7625021,32.1369928 33.4497475,33.4497475 C32.1369928,34.7625021 30.3565154,35.5 28.5,35.5 Z M28.5,25 C26.5670034,25 25,26.5670034 25,28.5 C25,30.4329966 26.5670034,32 28.5,32 C30.4329966,32 32,30.4329966 32,28.5 C32,26.5670034 30.4329966,25 28.5,25 Z" id="Fill" fill="#FFFFFF"></path>
        </g>
    </g>
</svg>