<?xml version="1.0" encoding="UTF-8"?>
<svg width="64px" height="64px" viewBox="0 0 64 64" version="1.1" xmlns="http://www.w3.org/2000/svg" xmlns:xlink="http://www.w3.org/1999/xlink">
    <title>tag</title>
    <g id="Page-1" stroke="none" stroke-width="1" fill="none" fill-rule="evenodd">
        <g id="tag">
            <circle id="Oval" fill="#FF9191" fill-rule="nonzero" cx="32" cy="32" r="32"></circle>
            <g id="Actions-/-Operations-/-tag-/-32" transform="translate(16.000000, 16.000000)" fill="#000000">
                <path d="M18.52,30 C17.7246186,29.9992998 16.9620694,29.6827699 16.4,29.12 L2.88,15.61 C2.31723005,15.0479306 2.00070021,14.2853814 2,13.49 L2,5 C2,3.34314575 3.34314575,2 5,2 L13.49,2 C14.2853814,2.00070021 15.0479306,2.31723005 15.61,2.88 L29.12,16.39 C29.6848636,16.9529056 30.0023657,17.7175456 30.0023657,18.515 C30.0023657,19.3124544 29.6848636,20.0770944 29.12,20.64 L20.64,29.12 C20.0779306,29.6827699 19.3153814,29.9992998 18.52,30 Z M5,4 C4.44771525,4 4,4.44771525 4,5 L4,13.49 C4.00110942,13.7572459 4.10914435,14.0129286 4.3,14.2 L17.81,27.71 C18.2000375,28.0977236 18.8299625,28.0977236 19.22,27.71 L27.71,19.22 C28.0977236,18.8299625 28.0977236,18.2000375 27.71,17.81 L14.2,4.3 C14.0129286,4.10914435 13.7572459,4.00110942 13.49,4 L5,4 Z M10,14 C7.790861,14 6,12.209139 6,10 C6,7.790861 7.790861,6 10,6 C12.209139,6 14,7.790861 14,10 C14,11.060866 13.5785726,12.0782816 12.8284271,12.8284271 C12.0782816,13.5785726 11.060866,14 10,14 Z M10,8 C8.8954305,8 8,8.8954305 8,10 C8,11.1045695 8.8954305,12 10,12 C11.1045695,12 12,11.1045695 12,10 C12,8.8954305 11.1045695,8 10,8 Z" id="Fill"></path>
            </g>
        </g>
    </g>
</svg>