<?xml version="1.0" encoding="UTF-8"?>
<svg width="78px" height="78px" viewBox="0 0 78 78" version="1.1" xmlns="http://www.w3.org/2000/svg" xmlns:xlink="http://www.w3.org/1999/xlink">
    <title>theme-78</title>
    <g id="Page-1" stroke="none" stroke-width="1" fill="none" fill-rule="evenodd">
        <g id="theme-78">
            <circle id="Oval-Copy" fill-opacity="0.85" fill="#000000" fill-rule="nonzero" cx="39" cy="39" r="39"></circle>
            <path d="M43.095,61.75 C41.8025052,61.7488622 40.5633628,61.2345012 39.65,60.32 L17.68,38.36625 C16.7654988,37.4528872 16.2511378,36.2137448 16.25,34.92125 L16.25,21.125 C16.25,18.4326118 18.4326118,16.25 21.125,16.25 L34.92125,16.25 C36.2137448,16.2511378 37.4528872,16.7654988 38.36625,17.68 L60.32,39.63375 C61.2379033,40.5484716 61.7538443,41.7910115 61.7538443,43.086875 C61.7538443,44.3827385 61.2379033,45.6252784 60.32,46.54 L46.54,60.32 C45.6266372,61.2345012 44.3874948,61.7488622 43.095,61.75 Z M21.125,19.5 C20.2275373,19.5 19.5,20.2275373 19.5,21.125 L19.5,34.92125 C19.5018028,35.3555246 19.6773596,35.7710089 19.9875,36.075 L41.94125,58.02875 C42.5750609,58.6588008 43.5986891,58.6588008 44.2325,58.02875 L58.02875,44.2325 C58.6588008,43.5986891 58.6588008,42.5750609 58.02875,41.94125 L36.075,19.9875 C35.7710089,19.6773596 35.3555246,19.5018028 34.92125,19.5 L21.125,19.5 Z M29.25,35.75 C25.6601491,35.75 22.75,32.8398509 22.75,29.25 C22.75,25.6601491 25.6601491,22.75 29.25,22.75 C32.8398509,22.75 35.75,25.6601491 35.75,29.25 C35.75,30.9739072 35.0651805,32.6272076 33.8461941,33.8461941 C32.6272076,35.0651805 30.9739072,35.75 29.25,35.75 Z M29.25,26 C27.4550746,26 26,27.4550746 26,29.25 C26,31.0449254 27.4550746,32.5 29.25,32.5 C31.0449254,32.5 32.5,31.0449254 32.5,29.25 C32.5,27.4550746 31.0449254,26 29.25,26 Z" id="Fill" fill="#FFFFFF"></path>
        </g>
    </g>
</svg>