<?xml version="1.0" encoding="UTF-8"?>
<svg width="280px" height="280px" viewBox="0 0 280 280" version="1.1" xmlns="http://www.w3.org/2000/svg" xmlns:xlink="http://www.w3.org/1999/xlink">
    <title>theme-280</title>
    <g id="Page-1" stroke="none" stroke-width="1" fill="none" fill-rule="evenodd">
        <g id="theme-280">
            <circle id="Oval-Copy" fill-opacity="0.85" fill="#000000" fill-rule="nonzero" cx="140" cy="140" r="140"></circle>
            <path d="M154.7,221.666667 C150.060275,221.662582 145.612072,219.816158 142.333333,216.533333 L63.4666667,137.725 C60.183842,134.446262 58.3374179,129.998058 58.3333333,125.358333 L58.3333333,75.8333333 C58.3333333,66.1683502 66.1683502,58.3333333 75.8333333,58.3333333 L125.358333,58.3333333 C129.998058,58.3374179 134.446262,60.183842 137.725,63.4666667 L216.533333,142.275 C219.828371,145.558616 221.680467,150.019016 221.680467,154.670833 C221.680467,159.322651 219.828371,163.783051 216.533333,167.066667 L167.066667,216.533333 C163.787928,219.816158 159.339725,221.662582 154.7,221.666667 Z M75.8333333,70 C72.6116723,70 70,72.6116723 70,75.8333333 L70,125.358333 C70.0064716,126.917268 70.6366754,128.40875 71.75,129.5 L150.558333,208.308333 C152.833552,210.570054 156.508115,210.570054 158.783333,208.308333 L208.308333,158.783333 C210.570054,156.508115 210.570054,152.833552 208.308333,150.558333 L129.5,71.75 C128.40875,70.6366754 126.917268,70.0064716 125.358333,70 L75.8333333,70 Z M105,128.333333 C92.1133558,128.333333 81.6666667,117.886644 81.6666667,105 C81.6666667,92.1133558 92.1133558,81.6666667 105,81.6666667 C117.886644,81.6666667 128.333333,92.1133558 128.333333,105 C128.333333,111.188385 125.875007,117.123309 121.499158,121.499158 C117.123309,125.875007 111.188385,128.333333 105,128.333333 Z M105,93.3333333 C98.5566779,93.3333333 93.3333333,98.5566779 93.3333333,105 C93.3333333,111.443322 98.5566779,116.666667 105,116.666667 C111.443322,116.666667 116.666667,111.443322 116.666667,105 C116.666667,98.5566779 111.443322,93.3333333 105,93.3333333 Z" id="Fill" fill="#FFFFFF"></path>
        </g>
    </g>
</svg>