<?xml version="1.0" encoding="UTF-8"?>
<svg width="64px" height="64px" viewBox="0 0 64 64" version="1.1" xmlns="http://www.w3.org/2000/svg" xmlns:xlink="http://www.w3.org/1999/xlink">
    <title>theme</title>
    <g id="Page-1" stroke="none" stroke-width="1" fill="none" fill-rule="evenodd">
        <g id="theme">
            <circle id="Oval-Copy" fill-opacity="0.85" fill="#000000" fill-rule="nonzero" cx="32" cy="32" r="32"></circle>
            <path d="M34.52,46 C33.7246186,45.9992998 32.9620694,45.6827699 32.4,45.12 L18.88,31.61 C18.3172301,31.0479306 18.0007002,30.2853814 18,29.49 L18,21 C18,19.3431458 19.3431458,18 21,18 L29.49,18 C30.2853814,18.0007002 31.0479306,18.3172301 31.61,18.88 L45.12,32.39 C45.6848636,32.9529056 46.0023657,33.7175456 46.0023657,34.515 C46.0023657,35.3124544 45.6848636,36.0770944 45.12,36.64 L36.64,45.12 C36.0779306,45.6827699 35.3153814,45.9992998 34.52,46 Z M21,20 C20.4477153,20 20,20.4477153 20,21 L20,29.49 C20.0011094,29.7572459 20.1091444,30.0129286 20.3,30.2 L33.81,43.71 C34.2000375,44.0977236 34.8299625,44.0977236 35.22,43.71 L43.71,35.22 C44.0977236,34.8299625 44.0977236,34.2000375 43.71,33.81 L30.2,20.3 C30.0129286,20.1091444 29.7572459,20.0011094 29.49,20 L21,20 Z M26,30 C23.790861,30 22,28.209139 22,26 C22,23.790861 23.790861,22 26,22 C28.209139,22 30,23.790861 30,26 C30,27.060866 29.5785726,28.0782816 28.8284271,28.8284271 C28.0782816,29.5785726 27.060866,30 26,30 Z M26,24 C24.8954305,24 24,24.8954305 24,26 C24,27.1045695 24.8954305,28 26,28 C27.1045695,28 28,27.1045695 28,26 C28,24.8954305 27.1045695,24 26,24 Z" id="Fill" fill="#FFFFFF"></path>
        </g>
    </g>
</svg>