<?xml version="1.0" encoding="UTF-8"?>
<svg width="48px" height="48px" viewBox="0 0 48 48" version="1.1" xmlns="http://www.w3.org/2000/svg" xmlns:xlink="http://www.w3.org/1999/xlink">
    <title>theme-48</title>
    <g id="Page-1" stroke="none" stroke-width="1" fill="none" fill-rule="evenodd">
        <g id="theme-48">
            <circle id="Oval-Copy" fill-opacity="0.85" fill="#000000" fill-rule="nonzero" cx="24" cy="24" r="24"></circle>
            <path d="M26.52,38 C25.7246186,37.9992998 24.9620694,37.6827699 24.4,37.12 L10.88,23.61 C10.3172301,23.0479306 10.0007002,22.2853814 10,21.49 L10,13 C10,11.3431458 11.3431458,10 13,10 L21.49,10 C22.2853814,10.0007002 23.0479306,10.3172301 23.61,10.88 L37.12,24.39 C37.6848636,24.9529056 38.0023657,25.7175456 38.0023657,26.515 C38.0023657,27.3124544 37.6848636,28.0770944 37.12,28.64 L28.64,37.12 C28.0779306,37.6827699 27.3153814,37.9992998 26.52,38 Z M13,12 C12.4477153,12 12,12.4477153 12,13 L12,21.49 C12.0011094,21.7572459 12.1091444,22.0129286 12.3,22.2 L25.81,35.71 C26.2000375,36.0977236 26.8299625,36.0977236 27.22,35.71 L35.71,27.22 C36.0977236,26.8299625 36.0977236,26.2000375 35.71,25.81 L22.2,12.3 C22.0129286,12.1091444 21.7572459,12.0011094 21.49,12 L13,12 Z M18,22 C15.790861,22 14,20.209139 14,18 C14,15.790861 15.790861,14 18,14 C20.209139,14 22,15.790861 22,18 C22,19.060866 21.5785726,20.0782816 20.8284271,20.8284271 C20.0782816,21.5785726 19.060866,22 18,22 Z M18,16 C16.8954305,16 16,16.8954305 16,18 C16,19.1045695 16.8954305,20 18,20 C19.1045695,20 20,19.1045695 20,18 C20,16.8954305 19.1045695,16 18,16 Z" id="Fill" fill="#FFFFFF"></path>
        </g>
    </g>
</svg>