<?xml version="1.0" encoding="UTF-8"?>
<svg width="124px" height="124px" viewBox="0 0 124 124" version="1.1" xmlns="http://www.w3.org/2000/svg" xmlns:xlink="http://www.w3.org/1999/xlink">
    <title>theme-124</title>
    <g id="Page-1" stroke="none" stroke-width="1" fill="none" fill-rule="evenodd">
        <g id="theme-124">
            <circle id="Oval-Copy" fill-opacity="0.85" fill="#000000" fill-rule="nonzero" cx="62" cy="62" r="62"></circle>
            <path d="M68.51,98.1666667 C66.4552647,98.1648578 64.485346,97.3471557 63.0333333,95.8933333 L28.1066667,60.9925 C26.6528443,59.5404873 25.8351422,57.5705686 25.8333333,55.5158333 L25.8333333,33.5833333 C25.8333333,29.3031265 29.3031265,25.8333333 33.5833333,25.8333333 L55.5158333,25.8333333 C57.5705686,25.8351422 59.5404873,26.6528443 60.9925,28.1066667 L95.8933333,63.0075 C97.3525642,64.4616728 98.1727781,66.4369927 98.1727781,68.4970833 C98.1727781,70.5571739 97.3525642,72.5324938 95.8933333,73.9866667 L73.9866667,95.8933333 C72.534654,97.3471557 70.5647353,98.1648578 68.51,98.1666667 Z M33.5833333,31 C32.1565977,31 31,32.1565977 31,33.5833333 L31,55.5158333 C31.002866,56.2062186 31.2819562,56.8667321 31.775,57.35 L66.6758333,92.2508333 C67.6834301,93.2524526 69.3107366,93.2524526 70.3183333,92.2508333 L92.2508333,70.3183333 C93.2524526,69.3107366 93.2524526,67.6834301 92.2508333,66.6758333 L57.35,31.775 C56.8667321,31.2819562 56.2062186,31.002866 55.5158333,31 L33.5833333,31 Z M46.5,56.8333333 C40.7930576,56.8333333 36.1666667,52.2069424 36.1666667,46.5 C36.1666667,40.7930576 40.7930576,36.1666667 46.5,36.1666667 C52.2069424,36.1666667 56.8333333,40.7930576 56.8333333,46.5 C56.8333333,49.2405704 55.744646,51.8688942 53.8067701,53.8067701 C51.8688942,55.744646 49.2405704,56.8333333 46.5,56.8333333 Z M46.5,41.3333333 C43.6465288,41.3333333 41.3333333,43.6465288 41.3333333,46.5 C41.3333333,49.3534712 43.6465288,51.6666667 46.5,51.6666667 C49.3534712,51.6666667 51.6666667,49.3534712 51.6666667,46.5 C51.6666667,43.6465288 49.3534712,41.3333333 46.5,41.3333333 Z" id="Fill" fill="#FFFFFF"></path>
        </g>
    </g>
</svg>